<!--
  - ---------------------------------------------------------------------
  - 版权声明 (Copyright Notice)
  - ---------------------------------------------------------------------
  - 项目名称: 竹监控「BambooDashboard」
  - 描述: 一个由 Go 编写的服务监控系统 (A service monitoring system written in Go)
  - 作者: 筱锋 (xiao_lfeng)
  -
  - 版权所有 © 2016-2024 筱锋(xiao_lfeng). 保留所有权利。
  - ---------------------------------------------------------------------
  - 许可声明:
  -   根据 MIT 许可协议，特此免费授予任何获得本软件和相关文档文件（“软件”）副本的人无限制地处
  -   理软件的权利，包括但不限于使用、复制、修改、合并、出版、分发、再许可和/或出售软件的副
  -   本，并允许软件提供给其使用的人这样做，但须符合以下条件：
  - 上述版权声明和本许可声明应包含在软件的所有副本或主要部分中。
  - ---------------------------------------------------------------------
  - 免责声明:
  -   本软件按“原样”提供，不提供任何明示或暗示的担保，包括但不限于对适销性、特定用途适用性和
  -   非侵权性的担保。在任何情况下，作者或版权持有人均不对因本软件或使用本软件而产生的任何索
  -   赔、损害或其他责任负责，无论是因合同、侵权或其他行为导致的。
  - ---------------------------------------------------------------------
  -->

<svg xmlns="http://www.w3.org/2000/svg" aria-hidden="true" role="img"
     class="iconify iconify--logos" width="31.88" height="32" preserveAspectRatio="xMidYMid meet" viewBox="0 0 256 257">
    <defs>
        <linearGradient id="IconifyId1813088fe1fbc01fb466" x1="-.828%" x2="57.636%" y1="7.652%" y2="78.411%">
            <stop offset="0%" stop-color="#41D1FF"></stop>
            <stop offset="100%" stop-color="#BD34FE"></stop>
        </linearGradient>
        <linearGradient id="IconifyId1813088fe1fbc01fb467" x1="43.376%" x2="50.316%" y1="2.242%" y2="89.03%">
            <stop offset="0%" stop-color="#FFEA83"></stop>
            <stop offset="8.333%" stop-color="#FFDD35"></stop>
            <stop offset="100%" stop-color="#FFA800"></stop>
        </linearGradient>
    </defs>
    <path fill="url(#IconifyId1813088fe1fbc01fb466)"
          d="M255.153 37.938L134.897 252.976c-2.483 4.44-8.862 4.466-11.382.048L.875 37.958c-2.746-4.814 1.371-10.646 6.827-9.67l120.385 21.517a6.537 6.537 0 0 0 2.322-.004l117.867-21.483c5.438-.991 9.574 4.796 6.877 9.62Z"></path>
    <path fill="url(#IconifyId1813088fe1fbc01fb467)"
          d="M185.432.063L96.44 17.501a3.268 3.268 0 0 0-2.634 3.014l-5.474 92.456a3.268 3.268 0 0 0 3.997 3.378l24.777-5.718c2.318-.535 4.413 1.507 3.936 3.838l-7.361 36.047c-.495 2.426 1.782 4.5 4.151 3.78l15.304-4.649c2.372-.72 4.652 1.36 4.15 3.788l-11.698 56.621c-.732 3.542 3.979 5.473 5.943 2.437l1.313-2.028l72.516-144.72c1.215-2.423-.88-5.186-3.54-4.672l-25.505 4.922c-2.396.462-4.435-1.77-3.759-4.114l16.646-57.705c.677-2.35-1.37-4.583-3.769-4.113Z"></path>
</svg>